<?xml version="1.0" standalone="no"?>
<!DOCTYPE svg PUBLIC "-//W3C//DTD SVG 20010904//EN"
 "http://www.w3.org/TR/2001/REC-SVG-20010904/DTD/svg10.dtd">
<svg version="1.0" xmlns="http://www.w3.org/2000/svg"
 width="469.000000pt" height="469.000000pt" viewBox="0 0 469.000000 469.000000"
 preserveAspectRatio="xMidYMid meet">
<metadata>
Created by potrace 1.14, written by Peter Selinger 2001-2017
</metadata>
<g transform="translate(0.000000,469.000000) scale(0.100000,-0.100000)"
fill="#000000" stroke="none">
<path d="M2440 4682 c-37 -10 -97 -47 -122 -72 -52 -55 -72 -108 -72 -190 0
-84 20 -134 75 -189 54 -55 105 -74 189 -75 118 0 197 51 248 162 61 135 -15
307 -160 358 -39 14 -121 17 -158 6z"/>
<path d="M2160 3984 c-72 -31 -112 -89 -113 -164 -2 -157 184 -249 299 -148
49 43 67 83 66 147 -1 95 -73 170 -170 177 -27 2 -62 -3 -82 -12z"/>
<path d="M1649 3438 c-68 -30 -97 -112 -64 -181 27 -58 56 -71 170 -77 l100
-5 -3 -673 -3 -672 -141 -223 c-77 -122 -215 -340 -307 -484 -91 -145 -178
-282 -192 -305 -15 -24 -70 -110 -123 -193 -151 -234 -169 -281 -146 -389 22
-106 104 -193 205 -219 39 -10 305 -13 1215 -12 l1165 1 50 23 c149 67 217
253 145 393 -14 27 -135 221 -270 433 -135 212 -252 396 -260 410 -32 52 -155
245 -216 340 -35 55 -82 130 -105 167 l-40 66 0 639 c0 351 0 653 1 671 l0 32
85 0 c52 0 99 6 120 14 97 41 99 192 3 242 -30 16 -92 17 -693 18 -595 1 -663
-1 -696 -16z m902 -805 c0 -302 1 -611 1 -688 0 -105 4 -153 17 -190 9 -27 76
-142 147 -255 72 -113 205 -322 296 -465 90 -143 186 -295 213 -338 28 -42 57
-88 65 -102 41 -65 99 -157 142 -224 28 -43 44 -79 39 -84 -11 -11 -2251 -11
-2262 0 -4 4 33 71 82 148 49 77 102 160 118 185 16 25 153 243 306 485 153
242 301 476 329 520 91 140 84 77 85 816 0 360 0 673 1 697 l0 42 210 0 210 0
1 -547z"/>
<path d="M1875 1139 c-22 -11 -22 -12 -267 -400 -92 -147 -169 -278 -172 -292
-3 -17 2 -31 16 -44 19 -17 63 -18 886 -18 477 -1 875 1 885 3 10 3 22 13 28
24 12 23 -8 65 -93 195 -29 45 -86 134 -127 198 -40 63 -80 119 -89 124 -10 6
-36 2 -71 -10 -30 -11 -64 -21 -76 -24 -11 -2 -49 -11 -85 -19 -73 -16 -196
-14 -250 5 -70 24 -167 72 -280 138 -201 119 -261 143 -305 120z"/>
</g>
</svg>
