<?xml version="1.0" ?><!DOCTYPE svg  PUBLIC '-//W3C//DTD SVG 1.1//EN'  'http://www.w3.org/Graphics/SVG/1.1/DTD/svg11.dtd'><svg enable-background="new 0 0 50 50" id="Layer_1" version="1.1" viewBox="0 0 50 50" xml:space="preserve" xmlns="http://www.w3.org/2000/svg" xmlns:xlink="http://www.w3.org/1999/xlink"><g><g><path d="M44.5080872,31.9016819v-0.3099976l-1.8599854-1.0700073    c-0.3099976-2.5599976-2.1000366-5.4100342-4.25-6.6500244c-1.2200317-0.6900024-2.3099976-0.7399902-3.0700073-0.289978    l-1.1199951,0.6499634c-0.1900024,0.0599976-0.3699951,0.1199951-0.5300293,0.210022l0.0300293-7.4699707l-3.7200317-2.1500235    L29.9780579,9.271678V8.3816633c0.0100098-0.2000122-0.1199951-0.4000244-0.3899536-0.5599976    c-0.5100098-0.2999878-1.3600464-0.2999878-1.8800049,0c-0.3600464,0.210022-0.460022,0.5-0.3300171,0.7600098    c-0.0300293-0.0499878-0.0599976-0.1099854-0.0599976-0.1600342c-0.0100098-0.0199585-0.0100098-0.0299683-0.0100098-0.039978    v4.8900146l-0.3300171-0.1900024l-0.0100098-5.4700317V6.7216902c0.0100098-0.2000122-0.1199951-0.4100342-0.3899536-0.5599976    c-0.5100098-0.3000488-1.3500366-0.3000488-1.8800049,0c-0.3599854,0.2099609-0.4500122,0.5-0.3300171,0.7599487    C24.348053,6.8616438,24.308075,6.811656,24.308075,6.7516584c-0.0100098-0.0100098-0.0100098-0.0200195-0.0100098-0.0299683    l0.0100098,5.8699951l-7.539978,4.3800039l-0.0300293,8.3699951l-4.7100229,2.7399902l-0.5499878-0.3200073l0.0100098-3.2999878    c-0.0100098,0.4500122-0.3099976,0.9099731-0.9099731,1.2600098c-0.3000488,0.1799927-0.6500244,0.2999878-1.0200195,0.3899536    c0.3699951-0.0899658,0.710022-0.2299805,1.0100098-0.3999634c0.6099854-0.3500366,0.8999634-0.8099976,0.8999634-1.2600098    c0-0.0499878,0-0.1099854-0.0099487-0.1600342c-0.0300293-0.6699829-0.2900391-1.2699585-0.6800537-1.7599487    c-0.0099487-0.0599976-0.0099487-0.1100464-0.0299683-0.1600342c0.0700073-0.1300049,0.1099854-0.2700195,0.1099854-0.4099731    c0-0.3900146-0.2600098-0.7600098-0.7299805-1.0300293c-0.9500122-0.5499878-2.4999995-0.5499878-3.4600215,0    c-0.4799805,0.2700195-0.7399902,0.6400146-0.7399902,1.0400391c0,0.1399536,0.039978,0.2799683,0.1099854,0.4099731    c-0.0199585,0.0499878-0.0199585,0.0999756-0.0299683,0.1500244c-0.3900146,0.4799805-0.6500244,1.0899658-0.6799927,1.7599487    c-0.0100098,0.0500488-0.0100098,0.1100464-0.0100098,0.1600342c0,0.1699829,0.0499878,0.3399658,0.1300049,0.5    c-0.0900269-0.1699829-0.1500244-0.3300171-0.1500244-0.5100098v0.75c-0.25,0.4000244-0.4799805,0.9700317-0.5299683,1.7700195    c-0.0200195,0.2799683-0.0300293,0.7000122-0.0400391,1.1799927c0,0.0100098,0,0.0100098,0,0.0100098    c-0.0199585,0.0299683-0.0100098,0.0599976,0,0.0899658c-0.0199585,1.1500244-0.0100098,2.7000122,0,4.080019    l-3.2699585,1.9000244v1.1399536l23.6300049,13.6400146l23.4499512-13.6300049v-1.1400146L44.5080872,31.9016819z     M5.2780452,32.0016594l-0.3199463,0.1799927v-0.7199726l0.3199463,0.1300049V32.0016594z M5.2880549,31.3416843    l-0.3299561-0.1300049c-0.0100098-0.4400024-0.0100098-0.8699951-0.0100098-1.2900391l0.3399658,0.1400146V31.3416843z     M5.2880549,29.8016453l-0.3399658-0.1300049c0-0.4599609,0.0100098-0.8999634,0.0100098-1.2999878l0.3299561,0.1400146    V29.8016453z M5.2880549,28.2516575l-0.3200073-0.1300049c0-0.4699707,0.0200195-0.8800049,0.0300293-1.1499634    c0.0100098-0.0700073,0.0200195-0.1300049,0.0299683-0.2000122l0.2600098,0.1099854V28.2516575z M5.2980647,26.6216526    l-0.2399902-0.0899658c0.0599976-0.3099976,0.1400146-0.5599976,0.2399902-0.7900391V26.6216526z M6.4780574,21.811655    c-0.1699829,0.1300049-0.2999878,0.2800293-0.3699951,0.4299927c-0.039978-0.0899658-0.0499878-0.1799927-0.0499878-0.2699585    c0-0.2700195,0.1500244-0.5300293,0.4199829-0.75V21.811655z M7.3180842,21.4116917    c-0.2200317,0.0699463-0.4400024,0.1299438-0.6199951,0.2399902c-0.0499878,0.0299683-0.0900269,0.0599976-0.1400146,0.0999756    v-0.5899658c0.0599976-0.0400391,0.1099854-0.0800171,0.1699829-0.1200562    c0.1799927-0.0999756,0.3800049-0.1599731,0.5900269-0.2199707V21.4116917z M8.3680716,21.2416477    c-0.3300171,0-0.6599727,0.0599976-0.9699702,0.1400146v-0.5999756c0.3099976-0.0800171,0.6399531-0.1300049,0.9699702-0.1400146    V21.2416477z M10.348052,21.2416477c0.25,0.2200317,0.3800049,0.4700317,0.3800049,0.7200317    c0,0.0899658-0.0100098,0.1799927-0.0499878,0.2699585c-0.0700073-0.1399536-0.1699829-0.2699585-0.3300171-0.3999634V21.2416477z     M9.4280691,21.3916721c-0.3099976-0.0900269-0.6300049-0.1400146-0.9699707-0.1500244v-0.5899658    c0.3399658,0,0.6599731,0.0599976,0.9699707,0.1399536V21.3916721z M9.518096,20.8316746    c0.1900024,0.0599976,0.3800049,0.1099854,0.5499878,0.2099609c0.0700073,0.0400391,0.1400146,0.0900269,0.2000122,0.1400146    v0.5900269c-0.0599976-0.0400391-0.1100464-0.0800171-0.1700439-0.1199951    c-0.1699829-0.1000366-0.3800049-0.1600342-0.5799561-0.2300415V20.8316746z M11.4780569,28.4016819v-0.1400146    l0.1199951,0.0700073L11.4780569,28.4016819z" fill="#B49C9A"/><path d="M26.3583679,5.7251081c0.4083862,0.0658569,0.8036499-0.1843872,0.9090576-0.5797119    c0.0394897,0.0131836,0.0922241,0.0263672,0.1448975,0.0395508c0.4611206,0.0658569,0.8827515-0.2503052,0.9486084-0.7114868    c0-0.0263062,0-0.0526733,0.0131836-0.0790405c0.2371216-0.1185303,0.4348145-0.3424683,0.4743652-0.6323855    c0-0.0263672,0.0131226-0.0658569,0.0131226-0.0922241c0.065918,0.0395508,0.1449585,0.0658569,0.223999,0.0790405    c0.447937,0.0658569,0.8695679-0.2503662,0.9354248-0.7114258c0.0263672-0.1580811,0-0.3162231-0.0658569-0.447998    c0.2371216-0.1185303,0.4347534-0.3556519,0.4742432-0.6455688c0.065979-0.447937-0.2503052-0.8695068-0.6982422-0.9353638    c-0.4215698-0.0659789-0.8036499,0.1975708-0.9222412,0.5797119c-0.1186523-0.1450195-0.3030396-0.2372437-0.513855-0.2767334    c-0.447937-0.0658569-0.8695068,0.2371216-0.9354248,0.6982422c-0.0131836,0.0527344-0.0131836,0.1185913-0.0131836,0.1712646    c-0.0658569-0.0262451-0.1317749-0.0394897-0.1976318-0.0526733c-0.447937-0.0658569-0.8695068,0.2371826-0.9353638,0.6982422    c-0.0131836,0.1318359-0.0131836,0.2503662,0.0262451,0.3557739c-0.2897949,0.0922241-0.5137939,0.3425903-0.5664673,0.671936    c-0.0264282,0.2107546,0.0131836,0.4084475,0.1185913,0.5665286c-0.065918,0.1054077-0.1185913,0.223938-0.1450195,0.3689575    C25.5809631,5.2508039,25.8971863,5.6592512,26.3583679,5.7251081z" fill="#B49C9A"/><path d="M29.9218445,4.4785872c-0.0131836,0.1317749-0.0131836,0.2503052,0.0263062,0.3557739    c-0.289856,0.0922241-0.513855,0.3425293-0.5665283,0.671936c-0.0263672,0.2107544,0.0131836,0.4084473,0.1185913,0.5665283    c-0.065918,0.1054077-0.1185913,0.223938-0.1449585,0.3688965c-0.0658569,0.4611206,0.2503052,0.8695679,0.7114868,0.9354248    c0.4084473,0.0658569,0.8036499-0.1843872,0.9090576-0.5797119c0.0394897,0.0131836,0.0922852,0.0263672,0.1449585,0.0395508    c0.4610596,0.0658569,0.8826904-0.2503052,0.9485474-0.7114868c0-0.0263062,0-0.0526733,0.0131836-0.0790405    c0.2371216-0.1185303,0.4348145-0.3425293,0.4743652-0.6323853c0-0.0263672,0.0131226-0.0658569,0.0131226-0.0922852    c0.065918,0.0396118,0.1449585,0.065918,0.223999,0.0791016c0.447937,0.0658569,0.8695679-0.2503662,0.9354248-0.7114258    c0.0263672-0.1581421,0-0.3162231-0.0658569-0.447998c0.2371216-0.1185303,0.4347534-0.3557131,0.4742432-0.6455691    c0.065979-0.447937-0.2503052-0.8695679-0.6982422-0.9354248c-0.4215698-0.065918-0.8036499,0.1976318-0.9222412,0.5797119    c-0.1185913-0.1449585-0.3030396-0.2371826-0.513855-0.2766724c-0.447937-0.0658569-0.8695068,0.2371216-0.9353638,0.6982422    c-0.0131836,0.0527344-0.0131836,0.1185913-0.0131836,0.1712646c-0.0658569-0.0263062-0.1318359-0.0394897-0.1976929-0.0526733    C30.4093323,3.7144878,29.9877014,4.0174665,29.9218445,4.4785872z" fill="#B49C9A"/></g><g><g><polygon fill="#D9E0E6" points="25.4756622,25.0005016 25.00527,25.2738628 24.5243759,24.9962196 24.9947681,24.7228565    "/></g><g><polygon fill="#D9E0E6" points="25.4756489,25.000494 25.0052567,25.2738571 24.5243874,24.9962254 24.9947796,24.7228642    "/></g><g><polygon fill="#D9E0E6" points="25.4756622,25.0005016 25.00527,25.2738628 24.5243759,24.9962196 24.9947681,24.7228565    "/></g><g><polygon fill="#D9E0E6" points="25.4756489,25.000494 25.0052567,25.2738571 24.5243874,24.9962254 24.9947796,24.7228642    "/></g><polygon fill="#2F873B" points="48.5416718,34.2294159 48.5384712,35.3681488 25.0840797,48.9983521 25.0872765,47.2790451   "/><polygon fill="#369D44" points="48.5419006,34.2328072 25.0833664,47.8589821 1.4581363,34.2229958 24.9166718,20.5870705   "/><polygon fill="#2F9138" points="25.0872765,47.8596191 25.0840797,48.9983521 1.4585963,35.3581734 1.4617932,34.2194405   "/><polygon fill="#B49C9A" points="33.7094307,16.9680099 33.6520348,30.5248375 25.2045803,35.4339638 25.2619762,21.8771343   "/><polygon fill="#D1BFBD" points="25.2619762,21.8771343 25.2045803,35.4339638 16.7127628,30.5312099 16.7701607,16.9743824   "/><polygon fill="#EBE3E1" points="33.7094307,16.9680099 25.2619762,21.8771343 16.7701607,16.9743824 25.217617,12.0652571   "/><polygon fill="#D1BFBD" points="25.2184639,12.5464497 25.2184639,12.8501644 32.6052017,17.1303997 32.8813591,16.9646378   "/><polygon fill="#B49C9A" points="17.5969467,16.9784584 17.8592834,17.1303997 25.2184639,12.8501644 25.2184639,12.5464497   "/><polygon fill="#526778" points="17.8592834,17.1303997 25.25984,21.3967304 32.6052017,17.1303997 25.2184639,12.8501644   "/><polygon fill="#A8B4C2" points="26.9568958,18.2452126 26.9540024,18.5821857 24.1891556,20.1889381 24.192049,19.8519669   "/><polygon fill="#D9E0E6" points="24.192049,19.8519669 24.1891556,20.1889381 19.9655323,17.7504292 19.9684258,17.413456   "/><polygon fill="#C0C8D5" points="26.9568958,18.2452126 24.192049,19.8519669 19.9684258,17.413456 22.7332726,15.8067026   "/><polygon fill="#98A7BA" points="23.0042686,18.2726154 24.677906,19.2389259 24.8685951,19.1295815 23.1930656,18.1622314   "/><polygon fill="#98A7BA" points="23.7766724,17.8211479 25.4577827,18.7917137 25.6483784,18.6824646 23.9654713,17.7107639   "/><polygon fill="#98A7BA" points="24.0512619,17.6606331 25.7350197,18.6328068 25.9083042,18.5333939 24.2228432,17.5602741   "/><polygon fill="#98A7BA" points="23.5192051,17.9716377 25.197855,18.9407845 25.3884506,18.8314419 23.7080021,17.8612537   "/><polygon fill="#98A7BA" points="23.2617378,18.1221275 24.9379272,19.0898552 25.1285229,18.9805107 23.4505348,18.0117435   "/><polygon fill="#98A7BA" points="22.508913,18.562149 24.1825504,19.5229721 24.331337,19.4376545 22.6610088,18.4732361   "/><polygon fill="#98A7BA" points="22.7468014,18.4231052 24.4179783,19.3879967 24.5913582,19.2885838 22.918478,18.3227482   "/><polygon fill="#98A7BA" points="26.3987427,18.2521858 24.7094994,17.2758484 24.5661983,17.3596535 26.2549686,18.3346653   "/><polygon fill="#98A7BA" points="24.4974327,17.3997593 24.3087292,17.5101433 25.9949474,18.483736 26.1855412,18.3743935   "/><polygon fill="#8390A0" points="26.2549686,18.3346653 24.5661983,17.3596535 24.4974327,17.3997593 26.1855412,18.3743935   "/><polygon fill="#8390A0" points="24.2228432,17.5602741 25.9083042,18.5333939 25.9949474,18.483736 24.3087292,17.5101433   "/><polygon fill="#8390A0" points="23.1930656,18.1622314 24.8685951,19.1295815 24.9379272,19.0898552 23.2617378,18.1221275   "/><polygon fill="#8390A0" points="22.918478,18.3227482 24.5913582,19.2885838 24.677906,19.2389259 23.0042686,18.2726154   "/><polygon fill="#8390A0" points="22.6610088,18.4732361 24.331337,19.4376545 24.4179783,19.3879967 22.7468014,18.4231052   "/><polygon fill="#8390A0" points="23.4505348,18.0117435 25.1285229,18.9805107 25.197855,18.9407845 23.5192051,17.9716377   "/><polygon fill="#8390A0" points="23.7080021,17.8612537 25.3884506,18.8314419 25.4577827,18.7917137 23.7766724,17.8211479   "/><polygon fill="#98A7BA" points="21.2793655,16.9776134 22.9580154,17.9467602 23.1480427,17.8370399 21.4688244,16.867609   "/><polygon fill="#98A7BA" points="21.5377789,16.8275967 23.2170906,17.7972183 23.4070244,17.6874962 21.7271442,16.7176857   "/><polygon fill="#98A7BA" points="21.7960987,16.6776752 23.4760723,17.6475792 23.6660995,17.5379524 21.9855576,16.5676708   "/><polygon fill="#98A7BA" points="20.5252151,17.4152718 22.2144604,18.3761902 22.353693,18.2957897 20.6764622,17.3274937   "/><polygon fill="#98A7BA" points="21.0209503,17.1275349 22.6990337,18.0963993 22.8889656,17.9866772 21.2104111,17.0176239   "/><polygon fill="#98A7BA" points="22.0716324,16.5177269 23.7523632,17.4881039 23.9250813,17.3883152 22.2439709,16.4177475   "/><polygon fill="#98A7BA" points="20.762537,17.2775517 22.4399586,18.2459431 22.6126747,18.146246 20.9348755,17.1775723   "/><polygon fill="#98A7BA" points="22.5195065,16.2578011 22.3300457,16.367712 24.0114403,17.3384666 24.2013721,17.2288399   "/><polygon fill="#98A7BA" points="24.4150467,17.105402 22.7413139,16.1290665 22.5884609,16.2177906 24.270422,17.1889229   "/><polygon fill="#8390A0" points="24.270422,17.1889229 22.5884609,16.2177906 22.5195065,16.2578011 24.2013721,17.2288399   "/><polygon fill="#8390A0" points="22.2439709,16.4177475 23.9250813,17.3883152 24.0114403,17.3384666 22.3300457,16.367712   "/><polygon fill="#8390A0" points="21.2104111,17.0176239 22.8889656,17.9866772 22.9580154,17.9467602 21.2793655,16.9776134   "/><polygon fill="#8390A0" points="20.9348755,17.1775723 22.6126747,18.146246 22.6990337,18.0963993 21.0209503,17.1275349   "/><polygon fill="#8390A0" points="20.6764622,17.3274937 22.353693,18.2957897 22.4399586,18.2459431 20.762537,17.2775517   "/><polygon fill="#8390A0" points="21.4688244,16.867609 23.1480427,17.8370399 23.2170906,17.7972183 21.5377789,16.8275967   "/><polygon fill="#8390A0" points="21.7271442,16.7176857 23.4070244,17.6874962 23.4760723,17.6475792 21.7960987,16.6776752   "/><polygon fill="#8390A0" points="21.9855576,16.5676708 23.6660995,17.5379524 23.7523632,17.4881039 22.0716324,16.5177269   "/><polygon fill="#8390A0" points="23.9654713,17.7107639 25.6483784,18.6824646 25.7350197,18.6328068 24.0512619,17.6606331   "/><path d="M24.4414673,14.867054c-0.6762257,0.390419-0.670372,1.0140018-0.0172081,1.3935795    c0.671814,0.3904152,1.7390099,0.3904209,2.4152355,0.0000019c0.6667995-0.3849773,0.6702785-1.0031366-0.0015354-1.3935528    C26.1847954,14.4875059,25.1082668,14.4820766,24.4414673,14.867054z" fill="#D9E0E6"/><path d="M26.979847,15.3851109c0,0.1996832-0.1305447,0.3993664-0.3916779,0.5529718    c-0.529911,0.2994776-1.3669872,0.2994776-1.8968964,0c-0.2534485-0.1536055-0.3839912-0.3456011-0.3839912-0.5452843    L24.299593,6.7167687c0,0.0153747,0,0.0230618,0.0076885,0.0383897c0.0076866,0.1766682,0.1382313,0.3609767,0.3763027,0.499208    c0.529911,0.3072119,1.367033,0.3072119,1.896944,0c0.2610874-0.1536059,0.3916321-0.345602,0.3916321-0.5452852v0.8985744    L26.979847,15.3851109z" fill="#3E535E"/><path d="M24.6999359,6.1607566c-0.530735,0.3064203-0.5261402,0.7958403-0.013504,1.0937514    c0.5272732,0.3064179,1.3648624,0.3064218,1.8955975,0.0000014c0.5233383-0.3021493,0.5260696-0.7873116-0.0012054-1.09373    C26.0681877,5.8628683,25.2232742,5.8586073,24.6999359,6.1607566z" fill="#526778"/><path d="M26.3997822,6.6015916c-0.2666798-0.1524248-0.6381855-0.2096038-0.9810486-0.1715369    c-0.1905441,0.0286417-0.3810368,0.0857682-0.5334091,0.1715369c-0.1395969,0.080637-0.2168827,0.1779771-0.265892,0.2790875    c-0.1041489-0.2114363-0.0269146-0.445755,0.265892-0.6148829c0.1523724-0.0857162,0.342865-0.1428952,0.5334091-0.1714845    c0.3428631-0.0380673,0.7143688,0.0190597,0.9810486,0.1714845c0.2844276,0.1680808,0.3598289,0.4004097,0.2581425,0.6107988    C26.6098042,6.7770033,26.5344563,6.681129,26.3997822,6.6015916z" fill="#3E535E"/><path d="M26.3997822,7.1516509c-0.4000435,0.228611-1.0191689,0.2476707-1.4382706,0.0475969    c-0.0285912-0.0190597-0.057127-0.0285897-0.0857162-0.0475969c-0.132843-0.0784903-0.2080345-0.1728458-0.2563629-0.2709718    c0.0490093-0.1011105,0.1262951-0.1984506,0.265892-0.2790875c0.1523724-0.0857687,0.342865-0.1428952,0.5334091-0.1715369    c0.3428631-0.0380669,0.7143688,0.0191121,0.9810486,0.1715369c0.1346741,0.0795374,0.210022,0.1754117,0.2581425,0.2750034    C26.6098042,6.9761868,26.5344563,7.0720611,26.3997822,7.1516509z" fill="#26373F"/><path d="M26.9721603,6.7090812v0.8985744c-0.0076408,0.176621-0.1382313,0.3609295-0.3839912,0.5068483    c-0.529911,0.3072119-1.3669872,0.3072119-1.8968964,0c-0.2534485-0.1536059-0.3839912-0.345602-0.3839912-0.5452852V6.7551584    c0.0076866,0.1766682,0.1382313,0.3609767,0.3763027,0.499208c0.529911,0.3072119,1.367033,0.3072119,1.896944,0    C26.8416157,7.1007605,26.9721603,6.9087644,26.9721603,6.7090812z" fill="#DB4545"/><path d="M27.448307,16.528717c-0.6762257,0.390419-0.6703701,1.0140018-0.0172081,1.3935795    c0.6718159,0.3904152,1.7390118,0.3904209,2.4152374,0.0000019c0.6667976-0.3849773,0.6702766-1.0031357-0.0015373-1.3935528    C29.1916351,16.1491699,28.1151066,16.1437397,27.448307,16.528717z" fill="#D9E0E6"/><path d="M29.9866886,17.0467739c0,0.1996841-0.1305447,0.3993664-0.3916798,0.5529728    c-0.529911,0.2994766-1.3669853,0.2994766-1.8968964,0c-0.2534466-0.1536064-0.3839912-0.345602-0.3839912-0.5452862    l-0.0076866-8.6760283c0,0.0153742,0,0.0230618,0.0076866,0.0383892c0.0076866,0.1766682,0.1382313,0.3609772,0.3763046,0.4992085    c0.5299091,0.3072119,1.367033,0.3072119,1.8969421,0c0.2610893-0.1536064,0.3916321-0.345602,0.3916321-0.5452852v0.8985739    L29.9866886,17.0467739z" fill="#3E535E"/><path d="M27.7067776,7.8224196c-0.5307369,0.3064208-0.5261421,0.7958407-0.0135059,1.0937514    c0.5272751,0.3064184,1.3648624,0.3064222,1.8955994,0.0000019c0.5233364-0.3021498,0.5260677-0.7873116-0.0012054-1.0937304    C29.0750294,7.5245314,28.2301159,7.5202703,27.7067776,7.8224196z" fill="#526778"/><path d="M29.4066219,8.2632551c-0.2666779-0.1524248-0.6381836-0.2096043-0.9810486-0.1715374    c-0.1905441,0.0286417-0.3810349,0.0857687-0.5334091,0.1715374c-0.139595,0.080637-0.2168808,0.1779766-0.265892,0.2790871    c-0.104147-0.2114363-0.0269127-0.445755,0.265892-0.6148829c0.1523743-0.0857162,0.342865-0.1428952,0.5334091-0.1714845    c0.342865-0.0380669,0.7143707,0.0190597,0.9810486,0.1714845c0.2844276,0.1680808,0.3598289,0.4004102,0.2581425,0.6107993    C29.6166439,8.4386663,29.541296,8.3427925,29.4066219,8.2632551z" fill="#3E535E"/><path d="M29.4066219,8.8133144c-0.4000435,0.228611-1.0191669,0.2476702-1.4382706,0.047596    c-0.0285892-0.0190592-0.057127-0.0285892-0.0857162-0.047596c-0.1328411-0.0784903-0.2080326-0.1728458-0.2563629-0.2709723    c0.0490112-0.1011105,0.126297-0.1984501,0.265892-0.2790871c0.1523743-0.0857687,0.342865-0.1428957,0.5334091-0.1715374    c0.342865-0.0380669,0.7143707,0.0191126,0.9810486,0.1715374c0.1346741,0.0795374,0.210022,0.1754112,0.2581425,0.2750034    C29.6166439,8.6378498,29.541296,8.7337246,29.4066219,8.8133144z" fill="#26373F"/><path d="M29.9790001,8.3707447v0.8985739c-0.0076408,0.1766214-0.1382313,0.3609295-0.3839912,0.5068483    c-0.529911,0.3072119-1.3669853,0.3072119-1.8968964,0c-0.2534466-0.1536064-0.3839912-0.345602-0.3839912-0.5452852V8.4168215    c0.0076866,0.1766682,0.1382313,0.3609772,0.3763046,0.4992085c0.5299091,0.3072119,1.367033,0.3072119,1.8969421,0    C29.8484573,8.7624235,29.9790001,8.5704279,29.9790001,8.3707447z" fill="#DB4545"/><polygon fill="#D9E0E6" points="23.9824104,27.8597279 18.2014027,24.5230198 18.2014027,24.5230198 17.6150532,24.8568192     23.9808426,28.5310764   "/><polygon fill="#13C1FF" points="18.2110138,20.4144211 18.2014027,24.5230198 23.9824104,27.8597279 23.9920216,23.7511959   "/><polygon fill="#D1BFBD" points="29.0641041,22.6564636 29.3296108,22.5032082 29.3346863,25.3435097 29.3346863,25.3435097     29.0684681,25.1919556   "/><polygon fill="#EBE3E1" points="26.4437408,26.7069073 29.0684681,25.1919556 29.0684681,25.1919556 29.3346863,25.3435097     26.4444523,27.0117188   "/><polygon fill="#13C1FF" points="29.0641041,22.6564636 29.0684681,25.1919556 26.4437408,26.7069073 26.4393768,24.1714458   "/><polygon fill="#D1BFBD" points="32.7126045,20.5676765 32.9781075,20.4144211 32.9831848,23.2547226 32.9831848,23.2547226     32.7169685,23.1031685   "/><polygon fill="#EBE3E1" points="30.0922394,24.6181202 32.7169685,23.1031685 32.7169685,23.1031685 32.9831848,23.2547226     30.0929508,24.9229298   "/><polygon fill="#13C1FF" points="32.7126045,20.5676765 32.7169685,23.1031685 30.0922394,24.6181202 30.0878754,22.0826588   "/><polygon fill="#725652" points="18.462513,28.4681301 21.1265678,30.0022068 18.4537773,31.5304966   "/><polygon fill="#987571" points="21.1265678,30.0022068 21.2987137,30.1013565 21.2899761,33.1746559 18.4537239,31.5414295     18.4537773,31.5304966   "/><polygon fill="#0B5077" points="28.2879601,41.1013412 44.5118294,31.5901546 44.5198593,35.5978851 28.2959919,45.1090736   "/><polygon fill="#006498" points="17.4540653,34.9013252 33.6779327,25.3901386 44.5118294,31.5901546 28.2879601,41.1013412   "/><polygon fill="#094569" points="28.2879601,41.1013412 28.2959919,45.1090736 17.4620972,38.9090538 17.4540653,34.9013252   "/><g><path d="M20.3177681,32.3780403c0.7744102-0.4532909,1.860487-0.4060822,3.0692844,0.2927589     c2.3798943,1.3504791,4.325346,4.6842232,4.325346,7.4134789l15.0001526-8.7884521     c0-2.7387695-1.9454536-6.0630589-4.3158913-7.4229889c-1.2182503-0.6893902-2.3043289-0.7460518-3.0692863-0.2927608     L20.3177681,32.3780403z" fill="#D9E0E6"/><path d="M19.0797749,35.1440811l8.6363335,4.9394646c0-2.7337685-1.9468117-6.0474968-4.3285332-7.4144096     C20.995491,31.3022194,19.0694084,32.3998871,19.0797749,35.1440811z" fill="#C0C8D5"/></g><g><g enable-background="new    "><g><polygon fill="#C0C8D5" points="28.4049091,43.9274063 44.617115,34.5059052 44.6190033,33.4438629 28.4067955,42.8653679             "/></g><g><polygon fill="#D9E0E6" points="28.4067955,42.8653679 44.6190033,33.4438629 44.5118294,33.3819847 28.2996197,42.8034897             "/></g><g><polygon fill="#B49C9A" points="28.2996197,42.8034897 28.2977314,43.8655281 28.4049091,43.9274063 28.4067955,42.8653679             "/></g></g></g><g><g enable-background="new    "><g><polygon fill="#C0C8D5" points="28.2996197,43.991497 17.3487759,37.6275597 17.3468895,36.5655212 28.2977314,42.9294586             "/></g><g><polygon fill="#D9E0E6" points="28.2977314,42.9294586 17.3468895,36.5655212 17.4540653,36.503643 28.4049091,42.8675804             "/></g><g><polygon fill="#C0C8D5" points="28.4049091,42.8675804 28.4067955,43.9296188 28.2996197,43.991497 28.2977314,42.9294586             "/></g></g></g><g><path d="M33.0415955,25.2902851l0.0035934,1.2663517     c0.0008469,0.2991791,0.1977081,0.5979137,0.5909691,0.8264523c0.7916107,0.4600334,2.0768242,0.4600391,2.8736076,0.0000134     c0.4013672-0.2317276,0.6020355-0.5358677,0.6011734-0.839468l-0.0035896-1.2663441     c0.0008583,0.3035984-0.1998062,0.6077385-0.6011734,0.8394661c-0.7967873,0.4600239-2.0820007,0.4600182-2.8736076-0.0000134     C33.2393074,25.8882027,33.0424461,25.5894699,33.0415955,25.2902851z" fill="#3E535E"/><path d="M36.7954712,25.2815189c0,0.1686459-0.0843163,0.3349323-0.2435837,0.4778042     c-0.0445023,0.0445023-0.0960388,0.0843296-0.1545944,0.1217995c-0.0281029,0.0187416-0.0562096,0.0374832-0.0866585,0.0538654     c-0.0562096,0.032795-0.1147652,0.0608997-0.1756668,0.0866604c-0.0679169,0.032795-0.138195,0.0585556-0.2131348,0.0819855     c-0.2576485,0.0843163-0.5504265,0.1288185-0.852562,0.1288185c-0.2974663,0-0.5832062-0.0421581-0.8361702-0.1217995     c-0.0772972-0.0234165-0.1499023-0.0515213-0.217823-0.0819702c-0.0655899-0.0281067-0.1288185-0.0585556-0.1873741-0.0936947     c-0.0281029-0.0163822-0.0538788-0.0327797-0.0796394-0.0491772c-0.0585556-0.0374832-0.1100769-0.0796413-0.1545792-0.1217995     c-0.1569405-0.1428699-0.2412529-0.3068275-0.2412529-0.4778042c0-0.1803532,0.096035-0.3560181,0.2763748-0.5059223     c0.0468483-0.0421581,0.1007156-0.0819721,0.1592712-0.1171112c0.0163956-0.0117073,0.0327911-0.0210724,0.0491905-0.0304489     c0.0679169-0.0374699,0.138195-0.0726089,0.2131348-0.1030579c0.0679321-0.0304508,0.135849-0.0562115,0.2084579-0.077282     c0.250618-0.0772972,0.5316849-0.1171112,0.8244591-0.1171112c0.2857437,0,0.5597916,0.039814,0.8033752,0.112421     c0.0749512,0.0234165,0.1452141,0.0468483,0.2131348,0.0772972c0.0772972,0.0304489,0.1522484,0.0679188,0.2201653,0.1077328     c0.0140533,0.0093765,0.0304527,0.0187416,0.0445023,0.0281048c0.0585556,0.0351391,0.1124382,0.0749512,0.1592712,0.1147804     C36.6994324,24.925499,36.7954712,25.1011639,36.7954712,25.2815189z" fill="#26373F"/><path d="M36.7949448,25.2844334c0,0.083374-0.0185547,0.1760807-0.0741539,0.2594547     c-0.0463257-0.083374-0.1112061-0.1575279-0.1946335-0.2316818c-0.0463257-0.0370483-0.1019287-0.083374-0.1575279-0.1112041     c-0.0185547-0.0092754-0.0370522-0.0185528-0.0463257-0.027771c-0.0741539-0.0463829-0.1483078-0.0834312-0.2224083-0.1112041     c-0.0648766-0.0278282-0.1390305-0.0556011-0.2131844-0.0741539c-0.2409592-0.0741539-0.5189667-0.1204796-0.8062515-0.1204796     s-0.5745659,0.0463257-0.8248024,0.1204796c-0.0648193,0.0185528-0.1389771,0.0463257-0.2038536,0.0741539     c-0.0741539,0.0370483-0.1482506,0.0740986-0.213131,0.1112041c-0.0185509,0.0092182-0.0371056,0.0184956-0.0463791,0.027771     c-0.0648232,0.0371056-0.1204224,0.0741558-0.1668053,0.1112041c-0.083374,0.0741539-0.1482506,0.1575851-0.1945763,0.2409592     c-0.0463829-0.083374-0.0741539-0.1760826-0.0741539-0.2687321c0-0.1760807,0.0926476-0.3521614,0.2687302-0.5004692     c0.0463829-0.0463257,0.1019821-0.083374,0.1668053-0.1204796c0.0092735-0.0092201,0.0278282-0.0184975,0.0463791-0.0277729     c0.0648804-0.0370483,0.1389771-0.0741539,0.213131-0.1019268c0.0648766-0.0371056,0.1390343-0.0648785,0.2038536-0.0834312     c0.2502365-0.0741539,0.5375175-0.1112022,0.8248024-0.1112022s0.5652924,0.0370483,0.8062515,0.1112022     c0.0741539,0.0185528,0.1483078,0.0463257,0.2131844,0.0741539c0.0741005,0.0277729,0.1482544,0.0648785,0.2224083,0.1112041     c0.0092735,0.0092754,0.027771,0.0185528,0.0463257,0.0277729c0.0555992,0.0371056,0.1112022,0.0741539,0.1575279,0.1112595     C36.7022362,24.9229946,36.7949448,25.0990753,36.7949448,25.2844334z" fill="#3E535E"/><g><path d="M35.8134232,24.6078243c0.0271797,0.0156918,0.050106,0.0344448,0.0671463,0.0560017      c0.078701,0.0985794,0.0012169,0.2162724-0.1730843,0.2570133c-0.1162033,0.0271587-0.2340546,0.0694084-0.316185,0.1332855      c-0.073555,0.0447636-0.1253319,0.1021004-0.1623497,0.1589355c0.0321808,0.0095558,0.062645,0.022131,0.0896492,0.0377216      c0.0270042,0.0155926,0.0488129,0.0331955,0.066288,0.0523071c0.1839905-0.0160942,0.4062881-0.0140839,0.585434,0.0341988      c0.1330147,0.0235023,0.2472076,0.0689793,0.3402252,0.1226788c0.066227,0.0382347,0.1217117,0.0806332,0.1656418,0.1222591      c0.1047592,0.0995865,0.0386276,0.2288456-0.1425819,0.2766285c-0.1290359,0.0343723-0.2773933,0.0165443-0.3723679-0.03829      c-0.0301018-0.0173779-0.0548439-0.0384731-0.071907-0.0628033c-0.0362206-0.0528183-0.0911369-0.1075478-0.1677437-0.1517754      c-0.0196838-0.011364-0.0407982-0.0220356-0.0633926-0.0318031c-0.0766487-0.0422478-0.174942-0.0729275-0.2740479-0.0940514      c-0.015522,0.0191116-0.0371323,0.0367165-0.0630951,0.0518036c-0.0276985,0.0160961-0.0597534,0.0286694-0.0935631,0.0382252      c0.0292511,0.1061249,0.0265007,0.2348824-0.0562706,0.3384933c-0.067852,0.1322784-0.2487717,0.2313614-0.4212227,0.2922211      c-0.1363983,0.0479774-0.3044434,0.0339756-0.4102211-0.0270958c-0.0272903-0.0157547-0.0504265-0.0346298-0.0678215-0.0563946      c-0.0787048-0.0985794-0.0012169-0.2162724,0.1730843-0.2570114c0.1161995-0.0271606,0.2340508-0.0694103,0.316185-0.1332855      c0.0735588-0.0437584,0.1253281-0.1021023,0.1623459-0.1589355c-0.032177-0.0085506-0.0626373-0.0211258-0.0887718-0.0362129      c-0.0287476-0.0165977-0.0496902-0.0347042-0.0654259-0.0538177c-0.1848564,0.0165997-0.4071579,0.0145874-0.5871696-0.0341988      c-0.1329384-0.0231056-0.2463188-0.0681553-0.3388786-0.1215935c-0.0666008-0.0384541-0.1224251-0.0812511-0.1669922-0.1233444      c-0.1038857-0.099081-0.0403557-0.2278404,0.1425819-0.2766266c0.1290398-0.0343742,0.2773933-0.0165462,0.3723717,0.0382881      c0.0301018,0.0173798,0.0548439,0.038475,0.071907,0.0628033c0.0376053,0.0536213,0.0917015,0.1078758,0.1679153,0.1518764      c0.0195808,0.0113068,0.0406227,0.0219364,0.0632172,0.031702c0.0766563,0.0432549,0.1766815,0.0729294,0.2749214,0.0945568      c0.0155258-0.0181065,0.0371361-0.0357113,0.0639687-0.0513039c0.0276947-0.0160942,0.0580139-0.0286694,0.0900879-0.0382252      c-0.0292587-0.1071301-0.0265045-0.2348804,0.0580025-0.3394966c0.0687218-0.1317749,0.2487717-0.2313614,0.4212227-0.2922211      C35.5389252,24.5323582,35.7080688,24.5469971,35.8134232,24.6078243z" fill="#C0C8D5"/></g><path d="M36.51688,24.4503536c-0.7876968-0.4633636-2.0758667-0.4540882-2.8728409,0     c-0.7969704,0.4633656-0.8062477,1.2047367-0.0092735,1.6681023c0.7877541,0.4540882,2.0758629,0.4540882,2.8728943,0     C37.3046341,25.6550903,37.3046341,24.9137192,36.51688,24.4503536z M36.5539856,25.7570744     c-0.0463257,0.0463257-0.1019287,0.083374-0.1575851,0.1204224c-0.027771,0.0185528-0.055603,0.0371056-0.083374,0.0556583     c-0.055603,0.0370483-0.1204796,0.0648212-0.1760826,0.0926514c-0.0741539,0.027771-0.1390305,0.0556011-0.2131271,0.0741539     c-0.2595139,0.083374-0.5560722,0.1296978-0.8526344,0.1296978c-0.2965584,0-0.5838432-0.0370483-0.8340225-0.1204777     c-0.0834274-0.0184975-0.1575851-0.0463257-0.2224045-0.083374c-0.0648766-0.0278301-0.1297569-0.055603-0.1853561-0.0926514     c-0.027832-0.0185528-0.055603-0.0278282-0.0834312-0.046381c-0.055603-0.0370483-0.1112022-0.083374-0.1482506-0.1204796     c-0.1575317-0.1482525-0.2409592-0.3057804-0.2409592-0.4818611s0.0926476-0.3521614,0.2687302-0.5004692     c0.0463829-0.0463257,0.1019821-0.083374,0.1668053-0.1204796c0.0092735-0.0092201,0.0278282-0.0184975,0.0463791-0.0277729     c0.0648804-0.0370483,0.1389771-0.0741539,0.213131-0.1019268c0.0648766-0.0371056,0.1390343-0.0648785,0.2038536-0.0834312     c0.2502365-0.0741539,0.5375175-0.1112022,0.8248024-0.1112022s0.5652924,0.0370483,0.8062515,0.1112022     c0.0741539,0.0185528,0.1483078,0.0463257,0.2131844,0.0741539c0.0741005,0.0277729,0.1482544,0.0648785,0.2224083,0.1112041     c0.0092735,0.0092754,0.027771,0.0185528,0.0463257,0.0277729c0.0555992,0.0371056,0.1112022,0.0741539,0.1575279,0.1112595     c0.1760788,0.1482506,0.2687874,0.3243313,0.2687874,0.5096893     C36.7949448,25.4512386,36.7115135,25.618042,36.5539856,25.7570744z" fill="#526778"/></g><g><path d="M28.7695141,27.7240486l0.0035934,1.2663498c0.000845,0.299181,0.1977062,0.5979137,0.5909691,0.8264542     c0.7916088,0.4600315,2.0768223,0.4600372,2.8736057,0.0000134c0.4013672-0.2317276,0.6020355-0.5358677,0.6011734-0.8394699     l-0.0035896-1.2663422c0.0008621,0.3035965-0.1998062,0.6077366-0.6011734,0.8394661     c-0.7967854,0.4600239-2.0819988,0.4600182-2.8736057-0.0000134     C28.9672241,28.3219662,28.7703629,28.0232315,28.7695141,27.7240486z" fill="#3E535E"/><path d="M32.5233879,27.7152824c0,0.1686459-0.0843163,0.3349323-0.2435837,0.4778042     c-0.0445023,0.0445023-0.0960388,0.0843296-0.1545906,0.1217976c-0.0281067,0.0187416-0.0562134,0.0374832-0.0866623,0.0538673     c-0.0562096,0.032793-0.1147652,0.0608997-0.1756649,0.0866604c-0.0679188,0.032793-0.1381969,0.0585556-0.2131348,0.0819855     c-0.2576504,0.0843163-0.5504265,0.1288185-0.8525639,0.1288185c-0.2974644,0-0.5832062-0.0421581-0.8361683-0.1217995     c-0.0772972-0.0234165-0.1499043-0.0515213-0.217823-0.0819721c-0.0655899-0.0281048-0.1288185-0.0585537-0.1873741-0.0936928     c-0.0281048-0.0163841-0.0538807-0.0327797-0.0796413-0.0491772c-0.0585556-0.0374832-0.1100769-0.0796413-0.1545792-0.1217995     c-0.1569386-0.1428699-0.2412529-0.3068275-0.2412529-0.4778042c0-0.1803532,0.0960369-0.35602,0.2763767-0.5059242     c0.0468483-0.0421581,0.1007137-0.0819702,0.1592693-0.1171093c0.0163975-0.0117092,0.032793-0.0210724,0.0491905-0.0304508     c0.0679188-0.037468,0.1381969-0.072607,0.2131348-0.103056c0.0679321-0.0304508,0.1358509-0.0562115,0.2084599-0.0772839     c0.2506161-0.0772953,0.5316849-0.1171093,0.8244591-0.1171093c0.2857418,0,0.5597897,0.039814,0.8033733,0.112421     c0.0749531,0.0234165,0.145216,0.0468464,0.2131348,0.0772972c0.0772972,0.0304489,0.1522484,0.0679188,0.2201691,0.1077309     c0.0140495,0.0093784,0.0304489,0.0187416,0.0445023,0.0281067c0.0585556,0.0351372,0.1124344,0.0749512,0.1592674,0.1147785     C32.4273491,27.3592625,32.5233879,27.5349274,32.5233879,27.7152824z" fill="#26373F"/><path d="M32.5228615,27.7181969c0,0.083374-0.0185547,0.1760807-0.0741539,0.2594547     c-0.0463257-0.083374-0.1112022-0.1575279-0.1946335-0.2316818c-0.0463257-0.0370502-0.1019287-0.083374-0.1575279-0.1112041     c-0.0185547-0.0092754-0.0370483-0.0185528-0.0463257-0.0277729c-0.0741539-0.046381-0.1483078-0.0834293-0.2224064-0.1112022     c-0.0648785-0.0278301-0.1390324-0.0556011-0.2131863-0.0741539c-0.2409592-0.0741539-0.5189667-0.1204796-0.8062496-0.1204796     c-0.2872849,0-0.5745678,0.0463257-0.8248024,0.1204796c-0.0648212,0.0185528-0.1389771,0.0463238-0.2038536,0.0741539     c-0.0741539,0.0370483-0.1482525,0.0740967-0.213131,0.1112022c-0.0185528,0.0092201-0.0371056,0.0184975-0.046381,0.0277729     c-0.0648212,0.0371056-0.1204224,0.0741539-0.1668053,0.1112041c-0.083374,0.0741539-0.1482506,0.1575832-0.1945763,0.2409573     c-0.046381-0.083374-0.0741539-0.1760807-0.0741539-0.2687302c0-0.1760807,0.0926495-0.3521614,0.2687302-0.5004711     c0.0463829-0.0463238,0.101984-0.083374,0.1668053-0.1204796c0.0092754-0.0092182,0.0278282-0.0184956,0.046381-0.027771     c0.0648785-0.0370502,0.1389771-0.0741558,0.213131-0.1019268c0.0648766-0.0371056,0.1390324-0.0648785,0.2038536-0.0834312     c0.2502346-0.0741539,0.5375175-0.1112022,0.8248024-0.1112022c0.2872829,0,0.5652905,0.0370483,0.8062496,0.1112022     c0.0741539,0.0185528,0.1483078,0.0463257,0.2131863,0.0741539c0.0740986,0.0277729,0.1482525,0.0648785,0.2224064,0.1112041     c0.0092773,0.0092754,0.027771,0.0185528,0.0463257,0.027771c0.0555992,0.0371056,0.1112022,0.0741558,0.1575279,0.1112595     C32.4301529,27.3567581,32.5228615,27.5328388,32.5228615,27.7181969z" fill="#3E535E"/><g><path d="M31.5413418,27.0415859c0.0271797,0.0156937,0.050106,0.0344467,0.0671444,0.0560036      c0.0787029,0.0985794,0.0012169,0.2162724-0.1730843,0.2570133c-0.1162014,0.0271587-0.2340546,0.0694084-0.3161831,0.1332836      c-0.073555,0.0447655-0.1253319,0.1021023-0.1623497,0.1589375c0.0321808,0.0095558,0.0626431,0.0221291,0.0896492,0.0377216      c0.0270042,0.0155907,0.048811,0.0331936,0.0662861,0.0523071c0.1839924-0.0160961,0.4062901-0.0140858,0.5854359,0.0341988      c0.1330147,0.0235004,0.2472076,0.0689793,0.3402233,0.1226788c0.0662308,0.0382347,0.1217117,0.0806332,0.1656456,0.1222591      c0.1047554,0.0995865,0.0386238,0.2288456-0.1425858,0.2766285c-0.1290359,0.0343723-0.2773914,0.0165443-0.3723679-0.03829      c-0.0301018-0.0173798-0.0548439-0.0384731-0.071907-0.0628033c-0.0362206-0.0528202-0.0911369-0.1075478-0.1677437-0.1517773      c-0.0196819-0.0113621-0.0407963-0.0220356-0.0633926-0.0318012c-0.0766487-0.0422478-0.1749401-0.0729294-0.2740479-0.0940514      c-0.015522,0.0191116-0.0371304,0.0367146-0.0630951,0.0518036c-0.0276966,0.0160961-0.0597515,0.0286694-0.0935612,0.0382252      c0.0292492,0.1061249,0.0265007,0.2348824-0.0562725,0.3384914c-0.067852,0.1322784-0.2487717,0.2313633-0.4212227,0.2922211      c-0.1363983,0.0479774-0.3044434,0.0339756-0.4102211-0.0270939c-0.0272884-0.0157566-0.0504265-0.0346298-0.0678215-0.0563946      c-0.0787029-0.0985794-0.0012169-0.2162724,0.1730843-0.2570133c0.1161995-0.0271587,0.2340527-0.0694084,0.316185-0.1332855      c0.0735588-0.0437565,0.12533-0.1021004,0.1623459-0.1589355c-0.0321751-0.0085487-0.0626373-0.0211239-0.0887699-0.0362129      c-0.0287476-0.0165958-0.0496902-0.0347042-0.0654278-0.0538158c-0.1848564,0.0165997-0.407156,0.0145874-0.5871696-0.0341988      c-0.1329365-0.0231056-0.2463169-0.0681553-0.3388767-0.1215954c-0.0666027-0.0384521-0.122427-0.0812492-0.1669922-0.1233425      c-0.1038876-0.0990829-0.0403576-0.2278404,0.1425819-0.2766285c0.1290379-0.0343723,0.2773933-0.0165443,0.3723698,0.03829      c0.0301018,0.0173798,0.0548439,0.0384731,0.071907,0.0628033c0.0376053,0.0536194,0.0917034,0.1078739,0.1679173,0.1518764      c0.0195808,0.0113049,0.0406227,0.0219364,0.0632172,0.031702c0.0766563,0.0432549,0.1766796,0.0729294,0.2749214,0.0945549      c0.0155258-0.0181065,0.0371361-0.0357094,0.0639668-0.051302c0.0276947-0.0160942,0.0580158-0.0286694,0.0900879-0.0382252      c-0.0292568-0.1071301-0.0265026-0.2348804,0.0580025-0.3394966c0.0687237-0.1317768,0.2487717-0.2313633,0.4212227-0.2922211      C31.2668419,26.9661217,31.4359856,26.9807606,31.5413418,27.0415859z" fill="#C0C8D5"/></g><path d="M32.2447968,26.8841171c-0.7876968-0.4633656-2.0758648-0.4540882-2.872839,0     c-0.7969723,0.4633656-0.8062496,1.2047367-0.0092754,1.6681023c0.7877541,0.4540882,2.0758648,0.4540882,2.8728943,0     C33.0325508,28.0888538,33.0325508,27.3474827,32.2447968,26.8841171z M32.2819023,28.1908379     c-0.0463257,0.0463257-0.1019249,0.083374-0.1575851,0.1204224c-0.027771,0.0185528-0.0555992,0.0371056-0.083374,0.0556583     c-0.0556011,0.0370483-0.1204796,0.0648212-0.1760807,0.0926495c-0.0741539,0.0277729-0.1390324,0.055603-0.213129,0.0741539     c-0.2595119,0.083374-0.5560722,0.1296997-0.8526325,0.1296997s-0.5838432-0.0370483-0.8340225-0.1204796     c-0.0834293-0.0184956-0.1575851-0.0463238-0.2224064-0.083374c-0.0648766-0.0278282-0.129755-0.0556011-0.1853561-0.0926495     c-0.0278301-0.0185528-0.0556011-0.0278301-0.0834312-0.0463829c-0.0556011-0.0370483-0.1112022-0.0833721-0.1482506-0.1204777     c-0.1575298-0.1482525-0.2409592-0.3057804-0.2409592-0.4818611s0.0926495-0.3521614,0.2687302-0.5004711     c0.0463829-0.0463238,0.101984-0.083374,0.1668053-0.1204796c0.0092754-0.0092182,0.0278282-0.0184956,0.046381-0.027771     c0.0648785-0.0370502,0.1389771-0.0741558,0.213131-0.1019268c0.0648766-0.0371056,0.1390324-0.0648785,0.2038536-0.0834312     c0.2502346-0.0741539,0.5375175-0.1112022,0.8248024-0.1112022c0.2872829,0,0.5652905,0.0370483,0.8062496,0.1112022     c0.0741539,0.0185528,0.1483078,0.0463257,0.2131863,0.0741539c0.0740986,0.0277729,0.1482525,0.0648785,0.2224064,0.1112041     c0.0092773,0.0092754,0.027771,0.0185528,0.0463257,0.027771c0.0555992,0.0371056,0.1112022,0.0741558,0.1575279,0.1112595     c0.1760788,0.1482525,0.2687874,0.3243332,0.2687874,0.5096912     C32.5228615,27.8850002,32.4394302,28.0518055,32.2819023,28.1908379z" fill="#526778"/></g><g><path d="M24.4974327,30.1578121l0.0035934,1.2663498c0.000845,0.2991791,0.1977043,0.5979137,0.5909691,0.8264523     c0.7916069,0.4600334,2.0768204,0.460041,2.8736057,0.0000153c0.4013653-0.2317276,0.6020336-0.5358696,0.6011734-0.8394699     l-0.0035896-1.2663422c0.0008602,0.3035965-0.1998081,0.6077366-0.6011734,0.8394661     c-0.7967854,0.4600239-2.0819988,0.4600182-2.8736057-0.0000134     C24.6951408,30.7557297,24.4982815,30.456995,24.4974327,30.1578121z" fill="#3E535E"/><path d="M28.2513065,30.149044c0,0.1686459-0.0843163,0.3349342-0.2435837,0.4778042     c-0.0445023,0.0445023-0.0960388,0.0843315-0.1545925,0.1217995c-0.0281067,0.0187416-0.0562115,0.0374832-0.0866604,0.0538673     c-0.0562115,0.032793-0.1147671,0.0608978-0.1756668,0.0866604c-0.0679188,0.032793-0.138195,0.0585537-0.2131329,0.0819855     c-0.2576523,0.0843143-0.5504265,0.1288185-0.8525658,0.1288185c-0.2974644,0-0.5832062-0.0421581-0.8361683-0.1217995     c-0.0772972-0.0234165-0.1499043-0.0515213-0.217823-0.0819721c-0.065588-0.0281048-0.1288185-0.0585556-0.1873722-0.0936928     c-0.0281067-0.0163841-0.0538807-0.0327816-0.0796413-0.0491772c-0.0585556-0.0374832-0.1100769-0.0796413-0.1545792-0.1217995     c-0.1569386-0.1428719-0.2412548-0.3068275-0.2412548-0.4778042c0-0.1803551,0.0960388-0.35602,0.2763786-0.5059242     c0.0468464-0.0421581,0.1007137-0.0819721,0.1592674-0.1171093c0.0163975-0.0117092,0.032795-0.0210724,0.0491924-0.0304508     c0.0679188-0.037468,0.138195-0.072607,0.2131329-0.1030579c0.067934-0.0304489,0.1358528-0.0562096,0.2084599-0.077282     c0.250618-0.0772972,0.5316849-0.1171093,0.824461-0.1171093c0.2857418,0,0.5597897,0.0398121,0.8033733,0.112421     c0.0749512,0.0234165,0.145216,0.0468464,0.2131348,0.0772953c0.0772953,0.0304508,0.1522484,0.0679188,0.2201672,0.1077328     c0.0140514,0.0093784,0.0304489,0.0187416,0.0445023,0.0281048c0.0585556,0.0351391,0.1124344,0.0749531,0.1592674,0.1147804     C28.1552677,29.793026,28.2513065,29.9686909,28.2513065,30.149044z" fill="#26373F"/><path d="M28.2507782,30.1519585c0,0.083374-0.0185528,0.1760826-0.0741539,0.2594566     c-0.0463238-0.083374-0.1112022-0.1575298-0.1946335-0.2316837c-0.0463257-0.0370483-0.1019268-0.083374-0.1575279-0.1112022     c-0.0185528-0.0092773-0.0370483-0.0185528-0.0463257-0.0277729c-0.0741539-0.046381-0.1483078-0.0834312-0.2224045-0.1112022     c-0.0648785-0.0278301-0.1390324-0.055603-0.2131863-0.0741539c-0.2409592-0.0741558-0.5189667-0.1204796-0.8062515-0.1204796     c-0.2872829,0-0.5745678,0.0463238-0.8248024,0.1204796c-0.0648212,0.0185509-0.1389751,0.0463238-0.2038536,0.0741539     c-0.0741539,0.0370483-0.1482506,0.0740967-0.213129,0.1112022c-0.0185528,0.0092201-0.0371056,0.0184956-0.0463829,0.0277729     c-0.0648212,0.0371056-0.1204224,0.0741539-0.1668034,0.1112022c-0.083374,0.0741539-0.1482525,0.1575851-0.1945782,0.2409592     c-0.046381-0.083374-0.0741539-0.1760807-0.0741539-0.2687321c0-0.1760807,0.0926514-0.3521614,0.2687321-0.5004692     c0.046381-0.0463257,0.1019821-0.083374,0.1668034-0.1204796c0.0092773-0.0092201,0.0278301-0.0184956,0.0463829-0.0277729     c0.0648785-0.0370483,0.1389751-0.0741539,0.213129-0.1019268c0.0648785-0.0371056,0.1390324-0.0648766,0.2038536-0.0834293     c0.2502346-0.0741539,0.5375195-0.1112041,0.8248024-0.1112041c0.2872849,0,0.5652924,0.0370502,0.8062515,0.1112041     c0.0741539,0.0185528,0.1483078,0.0463238,0.2131863,0.0741539c0.0740967,0.0277729,0.1482506,0.0648785,0.2224045,0.1112022     c0.0092773,0.0092773,0.0277729,0.0185528,0.0463257,0.0277729c0.0556011,0.0371056,0.1112022,0.0741539,0.1575279,0.1112595     C28.1580715,29.7905216,28.2507782,29.9666023,28.2507782,30.1519585z" fill="#3E535E"/><g><path d="M27.2692585,29.4753494c0.0271797,0.0156918,0.050106,0.0344448,0.0671444,0.0560036      c0.0787048,0.0985794,0.0012169,0.2162724-0.1730843,0.2570114c-0.1161995,0.0271606-0.2340527,0.0694103-0.3161812,0.1332855      c-0.0735569,0.0447636-0.1253319,0.1021023-0.1623497,0.1589355c0.0321808,0.0095577,0.0626431,0.022131,0.0896473,0.0377235      c0.0270061,0.0155907,0.0488129,0.0331936,0.066288,0.0523052c0.1839905-0.0160942,0.4062901-0.0140839,0.5854359,0.0341988      c0.1330147,0.0235023,0.2472076,0.0689812,0.3402233,0.1226807c0.0662289,0.0382347,0.1217117,0.0806332,0.1656437,0.1222591      c0.1047573,0.0995846,0.0386257,0.2288456-0.1425838,0.2766285c-0.1290379,0.0343723-0.2773933,0.0165443-0.3723698-0.03829      c-0.0300999-0.0173798-0.054842-0.038475-0.0719051-0.0628033c-0.0362206-0.0528202-0.0911369-0.1075478-0.1677437-0.1517773      c-0.0196819-0.011364-0.0407963-0.0220356-0.0633926-0.0318031c-0.0766506-0.0422459-0.174942-0.0729275-0.2740479-0.0940514      c-0.015522,0.0191135-0.0371323,0.0367165-0.0630951,0.0518055c-0.0276966,0.0160942-0.0597534,0.0286694-0.0935631,0.0382252      c0.0292511,0.1061249,0.0265026,0.2348824-0.0562725,0.3384914c-0.067852,0.1322784-0.2487717,0.2313614-0.4212227,0.2922211      c-0.1363964,0.0479774-0.3044415,0.0339756-0.4102192-0.0270958c-0.0272903-0.0157547-0.0504265-0.0346298-0.0678215-0.0563927      c-0.0787048-0.0985794-0.0012188-0.2162724,0.1730824-0.2570133c0.1162014-0.0271606,0.2340546-0.0694084,0.316185-0.1332855      c0.0735588-0.0437565,0.12533-0.1021004,0.1623478-0.1589355c-0.0321751-0.0085506-0.0626373-0.0211239-0.0887718-0.0362129      c-0.0287476-0.0165977-0.0496883-0.0347042-0.0654259-0.0538158c-0.1848564,0.0165977-0.4071579,0.0145874-0.5871716-0.0341988      c-0.1329346-0.0231056-0.246315-0.0681553-0.3388748-0.1215954c-0.0666027-0.0384521-0.122427-0.0812492-0.1669941-0.1233425      c-0.1038857-0.0990829-0.0403557-0.2278404,0.1425838-0.2766285c0.1290359-0.0343723,0.2773933-0.0165443,0.3723679,0.03829      c0.0301018,0.0173779,0.0548439,0.0384731,0.071909,0.0628014c0.0376053,0.0536213,0.0917015,0.1078758,0.1679153,0.1518784      c0.0195808,0.0113049,0.0406227,0.0219345,0.0632191,0.031702c0.0766563,0.0432549,0.1766777,0.0729275,0.2749195,0.0945549      c0.0155277-0.0181065,0.0371361-0.0357094,0.0639668-0.051302c0.0276947-0.0160942,0.0580158-0.0286694,0.0900898-0.0382252      c-0.0292587-0.1071301-0.0265045-0.2348824,0.0580006-0.3394985c0.0687237-0.1317749,0.2487736-0.2313614,0.4212246-0.2922192      C26.9947605,29.3998852,27.1639042,29.4145222,27.2692585,29.4753494z" fill="#C0C8D5"/></g><path d="M27.9727154,29.3178806c-0.7876987-0.4633656-2.0758648-0.4540882-2.872839,0     c-0.7969742,0.4633636-0.8062496,1.2047367-0.0092773,1.6681023c0.7877541,0.4540882,2.0758648,0.4540882,2.8728962,0     C28.7604694,30.5226173,28.7604694,29.7812443,27.9727154,29.3178806z M28.0098209,30.6246014     c-0.0463257,0.0463238-0.1019268,0.0833721-0.1575851,0.1204224c-0.0277729,0.0185528-0.0556011,0.0371056-0.083374,0.0556583     c-0.0556011,0.0370483-0.1204796,0.0648212-0.1760807,0.0926495c-0.0741539,0.0277729-0.1390324,0.0556011-0.213131,0.0741539     c-0.25951,0.083374-0.5560703,0.1296997-0.8526306,0.1296997s-0.5838451-0.0370483-0.8340225-0.1204796     c-0.0834312-0.0184956-0.1575851-0.0463257-0.2224064-0.083374c-0.0648785-0.0278282-0.129755-0.0556011-0.185358-0.0926495     c-0.0278282-0.0185528-0.0556011-0.0278301-0.0834293-0.0463829c-0.0556011-0.0370483-0.1112041-0.083374-0.1482525-0.1204796     c-0.1575279-0.1482506-0.2409592-0.3057785-0.2409592-0.4818611c0-0.1760807,0.0926514-0.3521614,0.2687321-0.5004692     c0.046381-0.0463257,0.1019821-0.083374,0.1668034-0.1204796c0.0092773-0.0092201,0.0278301-0.0184956,0.0463829-0.0277729     c0.0648785-0.0370483,0.1389751-0.0741539,0.213129-0.1019268c0.0648785-0.0371056,0.1390324-0.0648766,0.2038536-0.0834293     c0.2502346-0.0741539,0.5375195-0.1112041,0.8248024-0.1112041c0.2872849,0,0.5652924,0.0370502,0.8062515,0.1112041     c0.0741539,0.0185528,0.1483078,0.0463238,0.2131863,0.0741539c0.0740967,0.0277729,0.1482506,0.0648785,0.2224045,0.1112022     c0.0092773,0.0092773,0.0277729,0.0185528,0.0463257,0.0277729c0.0556011,0.0371056,0.1112022,0.0741539,0.1575279,0.1112595     c0.1760807,0.1482525,0.2687874,0.3243332,0.2687874,0.5096893     C28.2507782,30.3187637,28.1673489,30.485569,28.0098209,30.6246014z" fill="#526778"/></g><polygon fill="#98A7BA" points="23.2321987,36.8265915 23.3931885,36.733036 23.3994865,34.0703316 23.2384968,34.163887   "/><polygon fill="#D9E0E6" points="23.2384968,34.163887 23.3994865,34.0703316 21.4659996,32.9540329 21.3050117,33.0475883   "/><polygon fill="#C0C8D5" points="21.3050117,33.0475883 21.2987137,35.7102928 23.2321987,36.8265915 23.2384968,34.163887   "/><polygon fill="#98A7BA" points="21.6237144,35.5335121 21.632019,33.3792381 21.4287262,33.263073 21.4246006,35.6372185     21.6237144,35.5335121   "/><polygon fill="#D9E0E6" points="21.6237144,35.5335121 21.4246006,35.6372185 21.4246006,35.6372185 23.1088467,36.6120834     23.1088467,36.3880768   "/><polygon fill="#13C1FF" points="21.632019,33.3792381 21.6237144,35.5335121 23.1088467,36.3880768 23.1129742,34.2338066   "/><g><g><polygon fill="#98A7BA" points="25.1656837,37.9428902 25.3266735,37.8493347 25.3329716,35.1866302 25.1719837,35.2801857           "/></g><g><polygon fill="#D9E0E6" points="25.1719837,35.2801857 25.3329716,35.1866302 23.3994865,34.0703316 23.2384968,34.163887           "/></g><polygon fill="#C0C8D5" points="23.2384968,34.163887 23.2321987,36.8265915 25.1656837,37.9428902 25.1719837,35.2801857    "/><polygon fill="#98A7BA" points="23.5572014,36.6498108 23.565506,34.4955368 23.3622131,34.3793716 23.3580856,36.7535172      23.5572014,36.6498108    "/><polygon fill="#D9E0E6" points="23.5572014,36.6498108 23.3580856,36.7535172 23.3580856,36.7535172 25.0423336,37.7283821      25.0423336,37.5043755    "/><polygon fill="#13C1FF" points="23.565506,34.4955368 23.5572014,36.6498108 25.0423336,37.5043755 25.0464592,35.3501053    "/></g><path d="M29.9551411,2.5894411c0.0658607,0.1317997,0.0922356,0.2898948,0.0658607,0.4479899    c-0.0658607,0.4610975-0.4874744,0.777288-0.9353848,0.7114282c-0.0790462-0.0131879-0.1580944-0.0394835-0.2240334-0.0790474    c0,0.026376-0.0131092,0.0658596-0.0131092,0.0922356c-0.0395641,0.2898946-0.2372227,0.5138493-0.4743652,0.6323805    c-0.0131874,0.0263762-0.0131874,0.052752-0.0131874,0.0790477c-0.0658607,0.4611778-0.4874744,0.7773681-0.9485722,0.7115088    c-0.0526714-0.0131879-0.105423-0.0263762-0.144907-0.0395641c-0.105423,0.3953185-0.5006618,0.6455688-0.9090862,0.5797091    c-0.4611778-0.0658593-0.7773685-0.4742856-0.7115097-0.9353828c0.0263767-0.1449876,0.0790482-0.2635188,0.1449871-0.3689423    c-0.105423-0.1580954-0.1449871-0.3557544-0.1186104-0.5665212c0.0526714-0.3293784,0.2767067-0.5797091,0.5665207-0.6719446    c-0.039484-0.1054237-0.039484-0.2239547-0.0262947-0.3557544c0.0658588-0.4610975,0.4874725-0.7640998,0.9353828-0.6982403    c0.0658588,0.0131881,0.1317997,0.026376,0.1976585,0.0526717c0-0.0526717,0-0.1185312,0.0131874-0.1712832    c0.0658607-0.4610974,0.4874744-0.7640997,0.9353828-0.6982402C28.505909,1.3509755,28.6903,1.4432111,28.8089104,1.5881987    c0.1186123-0.3821304,0.5006618-0.6456491,0.9222755-0.5797091c0.4479103,0.0658596,0.7641811,0.4874735,0.6982403,0.935383    C30.3899441,2.2337673,30.1922836,2.4709101,29.9551411,2.5894411z" fill="#C0C8D5"/><path d="M33.6635246,4.2414618c0.0658569,0.1317997,0.0922356,0.2898946,0.0658569,0.4479899    c-0.0658569,0.4610977-0.4874725,0.777288-0.9353828,0.7114282c-0.0790482-0.0131879-0.1580925-0.0394835-0.2240334-0.0790477    c0,0.0263762-0.0131073,0.0658598-0.0131073,0.0922356c-0.039566,0.2898951-0.2372246,0.5138497-0.4743652,0.632381    c-0.0131912,0.0263758-0.0131912,0.052752-0.0131912,0.0790477c-0.0658569,0.4611778-0.4874725,0.7773681-0.9485683,0.7115083    c-0.0526733-0.0131879-0.1054249-0.0263758-0.1449089-0.0395637c-0.105423,0.395318-0.5006599,0.6455684-0.9090862,0.5797091    c-0.4611778-0.0658598-0.7773685-0.4742856-0.7115097-0.9353833c0.0263767-0.1449876,0.0790482-0.2635188,0.144989-0.3689423    c-0.1054249-0.1580949-0.144989-0.3557544-0.1186123-0.5665212c0.0526714-0.3293781,0.2767067-0.5797091,0.5665207-0.6719446    c-0.039484-0.1054235-0.039484-0.2239547-0.0262947-0.3557539c0.0658588-0.4610977,0.4874725-0.7641001,0.9353828-0.6982405    c0.0658588,0.0131881,0.1317997,0.026376,0.1976585,0.0526717c0-0.0526717,0-0.1185312,0.0131874-0.1712832    c0.0658607-0.4610975,0.4874744-0.7640998,0.9353848-0.69824c0.2108459,0.0394835,0.395237,0.1317191,0.5138474,0.2767067    c0.1186142-0.3821304,0.5006638-0.6456492,0.9222755-0.5797091c0.4479103,0.0658596,0.764183,0.4874735,0.6982422,0.9353828    C34.0983238,3.885788,33.9006653,4.1229305,33.6635246,4.2414618z" fill="#C0C8D5"/><polygon fill="#D9E0E6" points="14.7703552,30.0903244 14.7684937,31.3226833 12.0502491,29.7533035 12.0521107,28.5209446   "/><polygon fill="#A8B4C2" points="13.1558666,29.841177 13.1558666,30.2848969 14.6792021,31.1632309 14.6792021,30.1431141     13.1604452,29.26478 13.1604452,29.708498   "/><polygon fill="#A8B4C2" points="16.5497589,29.0562477 16.5478973,30.2886066 14.7684937,31.3226833 14.7703552,30.0903244   "/><polygon fill="#C0C8D5" points="14.8621674,30.1431141 14.8621674,31.1632309 16.4587116,30.2345829 16.4587116,29.2144661   "/><polygon fill="#C0C8D5" points="16.5497589,29.0562477 14.7703552,30.0903244 12.0521107,28.5209446 13.8315144,27.4868679   "/><path d="M15.4607172,28.6187668c0.3522072,0.2033463,0.3540163,0.5287228,0.0041094,0.7320652    c-0.349906,0.2033443-0.9116373,0.2033596-1.2638445,0.0000134c-0.352211-0.2033501-0.3540201-0.5287247-0.0041132-0.732069    C14.5467758,28.4154339,15.1085072,28.4154167,15.4607172,28.6187668z" fill="#485E6D"/><path d="M15.130805,28.6662388c0.0110598,0.0063839,0.0203896,0.0140152,0.0273228,0.0227871    c0.0320253,0.0401134,0.000495,0.0880032-0.0704308,0.1045818c-0.0472832,0.0110512-0.0952387,0.028244-0.1286583,0.0542355    c-0.0299311,0.0182152-0.0509987,0.0415459-0.066062,0.0646725c0.0130949,0.0038891,0.0254898,0.0090065,0.036479,0.0153503    c0.0109882,0.0063438,0.0198622,0.0135078,0.0269728,0.0212841c0.0748682-0.0065498,0.1653252-0.0057316,0.2382212,0.013916    c0.0541258,0.0095634,0.1005917,0.0280685,0.1384411,0.0499191c0.0269489,0.0155582,0.0495262,0.0328102,0.0674028,0.0497494    c0.0426273,0.0405216,0.0157175,0.0931206-0.0580187,0.1125641c-0.0525074,0.0139866-0.112875,0.006731-0.1515217-0.0155811    c-0.012249-0.0070724-0.0223169-0.0156555-0.0292606-0.0255566c-0.0147381-0.021492-0.0370846-0.0437622-0.0682564-0.061758    c-0.008009-0.0046253-0.0166006-0.0089664-0.025795-0.0129414c-0.0311899-0.0171909-0.0711861-0.0296764-0.1115141-0.038271    c-0.0063162,0.0077763-0.0151091,0.0149403-0.0256739,0.02108c-0.0112696,0.0065498-0.0243139,0.0116653-0.0380716,0.0155544    c0.0119019,0.0431824,0.0107841,0.0955772-0.0228977,0.1377354c-0.0276098,0.0538273-0.1012287,0.0941448-0.171401,0.1189098    c-0.0555019,0.0195217-0.1238813,0.0138245-0.1669235-0.0110264c-0.0111046-0.0064106-0.0205193-0.0140915-0.0275974-0.0229473    c-0.0320263-0.0401134-0.0004959-0.0880032,0.0704298-0.1045818c0.0472832-0.0110512,0.0952387-0.0282421,0.1286592-0.0542355    c0.029932-0.0178051,0.0509987-0.0415459,0.066061-0.0646725c-0.013092-0.003479-0.0254879-0.0085964-0.0361223-0.0147362    c-0.0116978-0.006752-0.0202188-0.0141201-0.0266228-0.0218983c-0.0752201,0.0067539-0.1656771,0.0059357-0.2389269-0.013916    c-0.0540934-0.0094013-0.1002293-0.0277328-0.1378927-0.0494785c-0.0271015-0.015646-0.0498171-0.0330601-0.0679512-0.05019    c-0.0422735-0.0403175-0.0164223-0.0927105,0.0580187-0.1125622c0.0525064-0.0139866,0.112874-0.0067329,0.1515207,0.0155792    c0.012249,0.0070724,0.0223169,0.0156555,0.0292606,0.0255566c0.0153027,0.0218182,0.0373154,0.0438957,0.068327,0.0618    c0.0079679,0.0046005,0.01653,0.0089264,0.0257244,0.0128994c0.0311928,0.017601,0.0718927,0.0296764,0.1118689,0.0384769    c0.0063181-0.0073681,0.015111-0.0145321,0.0260286-0.0208759c0.0112696-0.0065498,0.0236073-0.0116653,0.0366583-0.0155544    c-0.0119047-0.0435925-0.0107841-0.0955753,0.0236015-0.1381454c0.0279646-0.0536213,0.1012287-0.0941448,0.171401-0.1189079    C15.0191088,28.6355305,15.0879354,28.6414871,15.130805,28.6662388z" fill="#D9E0E6"/><g><polygon fill="#949BA5" points="14.8621674,30.2208462 14.8621674,30.2574787 16.4587116,29.3334084 16.4587116,29.3013554         "/></g><g><polygon fill="#949BA5" points="14.8621674,30.5502014 14.8621674,30.586832 16.4587116,29.6673431 16.4587116,29.6307106    "/></g><g><polygon fill="#949BA5" points="14.8621674,30.8841343 14.8621674,30.9161873 16.4587116,29.9966965 16.4587116,29.9646435         "/></g><g><polygon fill="#949BA5" points="14.8621674,31.0488682 14.8621674,31.0854435 16.4587116,30.161375 16.4587116,30.1293774    "/></g><g><polygon fill="#949BA5" points="14.8621674,30.7195129 14.8621674,30.7515106 16.4587116,29.8320198 16.4587116,29.7954426         "/></g><g><polygon fill="#949BA5" points="14.8621674,30.3855228 14.8621674,30.4221001 16.4587116,29.5026093 16.4587116,29.4660892         "/></g><g><polygon fill="#949BA5" points="13.1604452,29.3425674 13.1604452,29.3791428 14.6792021,30.2574787 14.6792021,30.2208462         "/></g><g><polygon fill="#949BA5" points="13.1604452,29.6765003 13.1604452,29.708498 14.6792021,30.586832 14.6792021,30.5547791    "/></g><g><polygon fill="#949BA5" points="13.1558666,30.0058556 13.1558666,30.0424309 14.6792021,30.9207668 14.6792021,30.8841343         "/></g><g><polygon fill="#949BA5" points="13.1558666,30.1705322 13.1558666,30.2071095 14.6792021,31.0854435 14.6792021,31.0488682         "/></g><g><polygon fill="#949BA5" points="13.1558666,29.841177 13.1558666,29.8777542 14.6792021,30.7560883 14.6792021,30.7195129    "/></g><g><polygon fill="#949BA5" points="13.1604452,29.5117664 13.1604452,29.5438213 14.6792021,30.4221001 14.6792021,30.3901024         "/></g><g><path d="M12.5974398,28.9907551c-0.0755291-0.0436077-0.1370916-0.0112057-0.1373377,0.075573     c-0.000246,0.0867805,0.0609322,0.1900101,0.1364613,0.2336159c0.0755329,0.0436096,0.1370916,0.0112419,0.1373377-0.0755367     C12.7341471,29.1376266,12.6729727,29.0343628,12.5974398,28.9907551z" fill="#485E6D"/></g><g><path d="M12.5956869,29.6091347c-0.0755291-0.0436077-0.1370993-0.0085201-0.1373377,0.0755749     c-0.000246,0.0867786,0.0609245,0.1927299,0.1364527,0.2363377c0.0755329,0.0436077,0.1371002,0.0085182,0.1373463-0.0782604     C12.7323866,29.7586918,12.6712198,29.6527424,12.5956869,29.6091347z" fill="#485E6D"/></g><g><g><g><g><path d="M11.4831095,24.4584351l-0.0185566,8.4777031        c-0.0012856,0.4564743-0.3013363,0.912735-0.9013758,1.2614403c-1.2014894,0.6982307-3.162827,0.6982384-4.3721638,0.0000267        c-0.6085606-0.3513527-0.9125013-0.8135834-0.9111929-1.2751083l0.0185409-8.4776917        c-0.0013013,0.4615173,0.3026395,0.9237499,0.9112,1.2751026c1.2093368,0.6982117,3.1706743,0.698204,4.3721638-0.0000267        C11.1817646,25.3711777,11.4818153,24.9149132,11.4831095,24.4584351z" fill="#A8B4C2"/></g></g></g><g><path d="M11.4670095,24.4499969c0,0.4557266-0.2937002,0.9115162-0.9014387,1.2660446      c-1.195138,0.6987972-3.1397657,0.6987972-4.3450427,0c-0.6076765-0.3443909-0.9115767-0.810318-0.9014387-1.2660446      c0-0.0506897,0-0.1114578,0.0101385-0.1620884c0.0810442-1.620512,1.4179945-2.9169712,3.0587831-2.9169712      c1.6509275,0,2.9878778,1.2964592,3.0688601,2.9169712C11.4670095,24.3385391,11.4670095,24.3993073,11.4670095,24.4499969z" fill="#C0C8D5"/></g><g><g><g><rect fill="#485E6D" height="0.6541898" width="0.0848246" x="7.3164744" y="20.7750473"/></g></g><g><g><rect fill="#485E6D" height="1.0160869" width="0.0848246" x="6.4773326" y="21.1268139"/></g></g><g><g><rect fill="#485E6D" height="0.9764255" width="0.0848246" x="9.4286261" y="20.7557144"/></g></g><g><g><rect fill="#485E6D" height="0.77558" width="0.0848246" x="10.2677679" y="21.1430626"/></g></g><g><g><path d="M6.6999516,21.6512814c-0.9412689,0.5434418-0.9462328,1.4237595-0.0110817,1.9672089        c0.9378862,0.5450401,2.454947,0.5434589,3.3962159,0.0000172s0.9489498-1.4221706,0.0110636-1.9672108        C9.1609983,21.1078472,7.6412206,21.1078396,6.6999516,21.6512814z" fill="#D9E0E6"/></g></g><g><g><path d="M6.9243517,21.7816887c-0.8165135,0.4714146-0.8208199,1.235054-0.009613,1.7064762        c0.8135791,0.4728012,2.1295691,0.4714279,2.9460831,0.0000134c0.8165131-0.4714146,0.8231764-1.233675,0.0095968-1.7064762        C9.0592117,21.3102798,7.7408652,21.3102741,6.9243517,21.7816887z" fill="#987571"/></g></g><g><g><path d="M10.463315,22.7896957c-0.0400391-0.25-0.2399902-0.5-0.5800171-0.6999512        c-0.8200073-0.4800415-2.1500249-0.4800415-2.9699712,0c-0.3400269,0.1999512-0.5500488,0.4499512-0.5900269,0.7099609        c-0.0999756-0.3599854,0.1099854-0.75,0.5900269-1.0299683c0.8199463-0.4700317,2.1499639-0.4700317,2.9699712,0        C10.3632784,22.0497055,10.5532808,22.4297104,10.463315,22.7896957z" fill="#C0C8D5"/></g></g><g><g><rect fill="#485E6D" height="0.6400571" width="0.0848246" x="8.3724432" y="23.3864536"/></g></g><g><g><rect fill="#485E6D" height="0.6018367" width="0.0848246" x="8.3724432" y="20.6417999"/></g></g><g><g><path d="M10.3541851,22.7978535v0.5743999c-0.0254221,0.0410175-0.0550842,0.0820847-0.0847473,0.1231022        v-0.6975021H10.3541851z" fill="#485E6D"/></g></g><g><g><path d="M9.5152235,23.2288876v0.6308517c-0.0254221,0.0084839-0.0550585,0.0169392-0.0847216,0.0211811        v-0.6520329H9.5152235z" fill="#485E6D"/></g></g><g><g><path d="M6.5619826,22.8576279v0.680088c-0.0296626-0.0357838-0.0593252-0.0715694-0.0847468-0.1073532        v-0.5727348H6.5619826z" fill="#485E6D"/></g></g><g><g><path d="M7.4009185,23.2640991v0.6380272c-0.0296626-0.0076027-0.0550842-0.0228081-0.0847468-0.0456161        v-0.592411H7.4009185z" fill="#485E6D"/></g></g><g><g><path d="M8.3846512,23.4224052c-0.6266675,0-1.2523007-0.1379948-1.7277322-0.4141922        C6.1856256,22.734293,5.9266,22.3666496,5.9270139,21.9729404c0.0006208-0.3964005,0.2637839-0.7665253,0.7410769-1.0421009        c0.9570699-0.5523949,2.5091524-0.5523949,3.4600153,0c0.4719143,0.274334,0.7313538,0.6419773,0.7307329,1.0352726        c-0.0004139,0.3959866-0.2639904,0.7661114-0.7419043,1.0421009        C9.6384001,23.2844105,9.0111113,23.4224052,8.3846512,23.4224052z M8.4003744,20.6418152        c-0.6034956,0-1.207612,0.1330299-1.6685615,0.3990898c-0.4365363,0.2519894-0.6771483,0.5830135-0.6775622,0.9322414        c-0.0006208,0.3463326,0.2362676,0.6750793,0.6663904,0.9250031c0.9156914,0.5321178,2.4106731,0.5321178,3.332572,0        c0.4371567-0.2524052,0.6781826-0.5834293,0.6785965-0.9322433c0.0004139-0.3461266-0.236475-0.6746655-0.6674252-0.9250011        C9.6065388,20.7748451,9.003664,20.6418152,8.4003744,20.6418152z" fill="#526778"/></g></g></g></g><g><g><path d="M4.7658181,35.5123711c0.0011535,0.064579,0.0536222,0.1164703,0.1181998,0.1164703      c0.0616946,0.0126877,0.1193528-0.0541992,0.1181998-0.1199265c-0.0002885-0.0149918-0.0061264-0.3659897-0.0135498-0.9040146      l1.3992968,0.5671425c0.0097299,0.7419205,0.0179462,1.239151,0.0182347,1.2570992      c0.001153,0.0645752,0.0536222,0.1164703,0.1181993,0.1164703c0.000577,0,0.0011535,0,0.00173,0      c0.0657306-0.0011559,0.1176229-0.0547752,0.1164699-0.1199303c-0.000793-0.0477829-0.0562892-3.3790703-0.0501628-5.9624538      c0.0002885-0.000721,0.0014415-0.000433,0.00173-0.0011539c0.0122523-0.0305576,0.0107388-0.0629196-0.0013695-0.0909557      c0.003171-1.0537796,0.0165768-1.9771061,0.0492258-2.480608c0.1107039-1.6911201,1.2915478-2.4971848,1.3036561-2.5052567      c0.0541987-0.0357475,0.0686135-0.1089745,0.0322886-0.1637497c-0.0351715-0.0541992-0.109551-0.069767-0.1637497-0.0322895      c-0.0237122,0.0156403-0.2919679,0.206995-0.5874667,0.5687294l-1.592741-0.6451263      c0.2443275-0.3340588,0.4671769-0.4906006,0.4717898-0.4938431c0.0541987-0.0357494,0.0697665-0.1083984,0.0340185-0.1631737      c-0.035172-0.0553532-0.109551-0.069191-0.1631732-0.0345955c-0.0443974,0.0288296-1.0932031,0.7299557-1.2102499,2.5375462      c-0.0183063,0.2808685-0.0302706,0.6986752-0.0383425,1.1874027c-0.000937,0.002018-0.0035319,0.002306-0.0043244,0.0043964      c-0.0124688,0.0312061-0.0100183,0.0639286,0.0027385,0.0922527      C4.6878352,30.8254662,4.7648811,35.4564438,4.7658181,35.5123711z M5.0287404,26.7720108l1.4530635,0.5883312      c-0.032721,0.1641102-0.0630641,0.3313198-0.0750279,0.5151768c-0.0134778,0.2074261-0.0236402,0.4888725-0.031352,0.816515      l-1.4110446-0.5715389c0.0079279-0.4711399,0.0196037-0.8743172,0.0372615-1.1467514      C5.0063977,26.9010925,5.0208845,26.8409119,5.0287404,26.7720108z M6.3572617,30.2385769l-1.4056392-0.5693054      c0.0007925-0.460907,0.0033875-0.8997593,0.0085044-1.2954388l1.4103241,0.5712509      C6.3633161,29.3307457,6.3591356,29.7680836,6.3572617,30.2385769z M6.3577662,31.7762527l-1.4028282-0.5684395      c-0.0023065-0.4320774-0.0034599-0.8633614-0.0033875-1.2835464l1.4047742,0.568943      C6.3553157,30.9084949,6.3560367,31.3401394,6.3577662,31.7762527z M6.3677125,33.3188324l-1.4008827-0.5675049      c-0.0040359-0.4129753-0.0074954-0.8460636-0.0102344-1.2877979l1.4021077,0.568224      C6.3608656,32.4682999,6.3640366,32.9009514,6.3677125,33.3188324z M7.0789285,25.9531174      c-0.211462,0.2985973-0.4144917,0.6881523-0.5437908,1.1737804l-1.4738922-0.5967636      c0.0903072-0.5197906,0.2597508-0.918932,0.4415188-1.2153683L7.0789285,25.9531174z M4.9851365,34.3483925      c-0.0051174-0.3832092-0.0105228-0.8428192-0.0157123-1.3409882l1.4005222,0.5674324      c0.0046129,0.4878616,0.0097299,0.9405518,0.0147753,1.3407707L4.9851365,34.3483925z" fill="#3E535E"/></g></g><path d="M12.5033531,35.4188843v0.0141068c0,0.0563431-0.0281286,0.0986671-0.0985785,0.1409035    c-0.1268797,0.0705338-0.3664455,0.0705338-0.507432,0c-0.0704508-0.0422363-0.0986652-0.0985794-0.0986652-0.1550102    c0-0.0563431,0.0282145-0.1127701,0.0986652-0.1408997c0.1409864-0.0704498,0.3664446-0.0845566,0.507432,0    C12.4752245,35.3061142,12.5033531,35.3625412,12.5033531,35.4188843z" fill="#2F873B"/><path d="M14.300004,34.4731712v0.0141068c0,0.0564308-0.0281286,0.0986633-0.0985785,0.1409874    c-0.1268797,0.0704498-0.3664455,0.0704498-0.507432,0c-0.0704498-0.0423241-0.0986643-0.0986671-0.0986643-0.1550941    c0-0.0563431,0.0282145-0.1126862,0.0986643-0.1408997c0.1409864-0.0704536,0.3664455-0.0845604,0.507432,0    C14.2718754,34.3604851,14.300004,34.4168282,14.300004,34.4731712z" fill="#2F873B"/><path d="M11.3888674,27.5869865c0,0.2199287-0.1465454,0.4582062-0.3298941,0.5498238    c-0.1099653,0.0732727-0.2015839,0.0732727-0.2565107,0c-0.0366917-0.0366917-0.0550375-0.0916176-0.0550375-0.1650028    c0-0.2015839,0.146657-0.4765511,0.3115482-0.5681705c0.1099644-0.0732727,0.2199297-0.0549259,0.2749681,0    C11.3706331,27.4586754,11.3888674,27.5136013,11.3888674,27.5869865z" fill="#98A7BA"/><g><path d="M12.4008808,28.427393l-0.0174952,3.9325962l-0.0087471,0.4981384v0.0087471l-0.0087481,2.5430565     v0.0087471c0,0.034935-0.0174417,0.0611801-0.0611267,0.087368c-0.0786753,0.0437393-0.2272253,0.0437393-0.3146486,0     c-0.043685-0.0261879-0.0611801-0.0611267-0.0611801-0.0961151l0.0349903-6.860178l-1.02246-0.6030006     c-0.0174952-0.0174961-0.0262432-0.043684-0.0262432-0.0786762c0-0.096117,0.0699282-0.2272243,0.14855-0.2709103     c0.052433-0.0349369,0.1048651-0.0261879,0.1311083,0l1.1011353,0.6379929     C12.3571959,28.2788429,12.4008808,28.3487167,12.4008808,28.427393z" fill="#3E535E"/></g><g><path d="M14.1661444,34.4748383v0.0087471c0,0.0349922-0.0174417,0.0611801-0.0611267,0.0874252     c-0.0786753,0.0436859-0.2272253,0.0436859-0.3146486,0c-0.043685-0.0262451-0.0611801-0.0611801-0.0611801-0.0961723     l-0.0086946-2.3945045l-1.3458557,0.7777939v0.0087471l-0.0786228,0.0436821     c-0.1048651,0.0611801-0.2447205,0.0261917-0.3059006-0.0786743c-0.0524321-0.104866-0.0174417-0.23592,0.0874233-0.2971001     l0.3058472-0.1747932l1.4507217-0.8476658c0.0698738-0.0349903,0.14855-0.0349903,0.2184772,0     c0.0698748,0.043684,0.1048651,0.1135578,0.1048651,0.192234L14.1661444,34.4748383z" fill="#3E535E"/></g><polygon fill="#B49C9A" points="18.1989174,20.4571686 17.6260052,20.1264706 17.6150532,24.8093987 17.6150532,24.8093987     18.1895008,24.4823723   "/></g></g></svg>